<svg id="Layer_1" xmlns="http://www.w3.org/2000/svg" viewBox="0 0 256 256"><style>.st1{fill:#fff}</style><linearGradient id="XMLID_3_" gradientUnits="userSpaceOnUse" x1="221.467" y1="-21.579" x2="34.533" y2="277.579"><stop offset="0" stop-color="#1066b1"/><stop offset="1" stop-color="#7c3b97"/></linearGradient><path id="XMLID_2_" fill="url(#XMLID_3_)" d="M0 0h256v256H0z"/><g id="XMLID_87_"><g id="XMLID_68_"><path id="XMLID_82_" class="st1" d="M211.3 50.2H44.7c-9.2 0-16.7 7.5-16.7 16.7v122.2c0 9.2 7.5 16.7 16.7 16.7h166.7c9.2 0 16.7-7.5 16.7-16.7V66.9c-.1-9.2-7.6-16.7-16.8-16.7zm5.6 138.9c0 3.1-2.5 5.6-5.6 5.6H44.7c-3.1 0-5.6-2.5-5.6-5.6V66.9c0-3.1 2.5-5.6 5.6-5.6h166.7c3.1 0 5.6 2.5 5.6 5.6v122.2zM94.7 165.5v2.8c0 2.3-1.9 4.2-4.2 4.2h-25c-2.3 0-4.2-1.9-4.2-4.2v-2.8c0-2.3 1.9-4.2 4.2-4.2h25c2.3 0 4.2 1.9 4.2 4.2zm66.6 0v2.8c0 2.3-1.9 4.2-4.2 4.2h-47.2c-2.3 0-4.2-1.9-4.2-4.2v-2.8c0-2.3 1.9-4.2 4.2-4.2h47.2c2.4 0 4.2 1.9 4.2 4.2z"/></g><g id="XMLID_88_"><path id="XMLID_89_" class="st1" d="M105.6 71.6h10.5l19.1 33.5V71.6h9.4v48h-10l-19.6-34v34.1h-9.4V71.6z"/><path id="XMLID_91_" class="st1" d="M163.2 119.7h-10v-48h10v48z"/><path id="XMLID_93_" class="st1" d="M172.6 71.7h34.3v8.4h-24.3v11h21.3v8.3h-21.3v20.1h-10V71.7z"/></g></g></svg>