<svg id="nmgr-svgs" aria-hidden="true" style="position: absolute; width: 0; height: 0; overflow: hidden;" version="1.1" xmlns="http://www.w3.org/2000/symbol" xmlns:xlink="http://www.w3.org/1999/xlink">
	<defs>
		<symbol id="nmgr-icon-user" viewBox="0 0 24 24">
			<path d="M13.5 16.561v-1.237c1.652-0.931 3-3.252 3-5.574 0-3.728 0-6.75-4.5-6.75s-4.5 3.022-4.5 6.75c0 2.322 1.348 4.643 3 5.574v1.237c-5.088 0.416-9 2.916-9 5.939h21c0-3.023-3.912-5.523-9-5.939z"></path>
		</symbol>
		<symbol id="nmgr-icon-pencil" viewBox="0 0 24 24">
			<path d="M7.127 22.564l-7.126 1.436 1.438-7.125 5.688 5.689zm-4.274-7.104l5.688 5.689 15.46-15.46-5.689-5.689-15.459 15.46z"/>
		</symbol>
		<symbol id="nmgr-icon-trash-can" viewBox="0 0 24 24">
			<path d="M3 6l3 18h12l3-18h-18zm19-4v2h-20v-2h5.711c.9 0 1.631-1.099 1.631-2h5.316c0 .901.73 2 1.631 2h5.711z"/>
		</symbol>
		<symbol id="nmgr-icon-star-full" viewBox="0 0 24 24">
			<path d="M12 .587l3.668 7.568 8.332 1.151-6.064 5.828 1.48 8.279-7.416-3.967-7.417 3.967 1.481-8.279-6.064-5.828 8.332-1.151z"/>
		</symbol>
		<symbol id="nmgr-icon-star-empty" viewBox="0 0 24 24">
			<path d="M12 5.173l2.335 4.817 5.305.732-3.861 3.71.942 5.27-4.721-2.524-4.721 2.525.942-5.27-3.861-3.71 5.305-.733 2.335-4.817zm0-4.586l-3.668 7.568-8.332 1.151 6.064 5.828-1.48 8.279 7.416-3.967 7.416 3.966-1.48-8.279 6.064-5.827-8.332-1.15-3.668-7.569z"/>
		</symbol>
		<symbol id="nmgr-icon-gear" viewBox="0 0 24 24">
			<path d="M24 13.616v-3.232c-1.651-.587-2.694-.752-3.219-2.019v-.001c-.527-1.271.1-2.134.847-3.707l-2.285-2.285c-1.561.742-2.433 1.375-3.707.847h-.001c-1.269-.526-1.435-1.576-2.019-3.219h-3.232c-.582 1.635-.749 2.692-2.019 3.219h-.001c-1.271.528-2.132-.098-3.707-.847l-2.285 2.285c.745 1.568 1.375 2.434.847 3.707-.527 1.271-1.584 1.438-3.219 2.02v3.232c1.632.58 2.692.749 3.219 2.019.53 1.282-.114 2.166-.847 3.707l2.285 2.286c1.562-.743 2.434-1.375 3.707-.847h.001c1.27.526 1.436 1.579 2.019 3.219h3.232c.582-1.636.75-2.69 2.027-3.222h.001c1.262-.524 2.12.101 3.698.851l2.285-2.286c-.744-1.563-1.375-2.433-.848-3.706.527-1.271 1.588-1.44 3.221-2.021zm-12 2.384c-2.209 0-4-1.791-4-4s1.791-4 4-4 4 1.791 4 4-1.791 4-4 4z"/>
		</symbol>
		<symbol id="nmgr-icon-cart-full" viewBox="0 0 24 24">
			<path d="M10 19.5c0 .829-.672 1.5-1.5 1.5s-1.5-.671-1.5-1.5c0-.828.672-1.5 1.5-1.5s1.5.672 1.5 1.5zm3.5-1.5c-.828 0-1.5.671-1.5 1.5s.672 1.5 1.5 1.5 1.5-.671 1.5-1.5c0-.828-.672-1.5-1.5-1.5zm6.304-15l-3.431 12h-2.102l2.542-9h-16.813l4.615 11h13.239l3.474-12h1.929l.743-2h-4.196z"/>
		</symbol>
		<symbol id="nmgr-icon-cart-empty" viewBox="0 0 24 24">
			<path d="M24 3l-.743 2h-1.929l-3.474 12h-13.239l-4.615-11h16.812l-.564 2h-13.24l2.937 7h10.428l3.432-12h4.195zm-15.5 15c-.828 0-1.5.672-1.5 1.5 0 .829.672 1.5 1.5 1.5s1.5-.671 1.5-1.5c0-.828-.672-1.5-1.5-1.5zm6.9-7-1.9 7c-.828 0-1.5.671-1.5 1.5s.672 1.5 1.5 1.5 1.5-.671 1.5-1.5c0-.828-.672-1.5-1.5-1.5z"/>
		</symbol>
		<symbol id="nmgr-icon-bubble" viewBox="0 0 24 24">
			<path d="M12 1.5c6.627 0 12 4.365 12 9.75s-5.373 9.75-12 9.75c-0.636 0-1.261-0.041-1.871-0.118-2.578 2.578-5.654 3.040-8.629 3.108v-0.631c1.606-0.787 3-2.22 3-3.859 0-0.229-0.018-0.453-0.051-0.673-2.714-1.787-4.449-4.518-4.449-7.577 0-5.385 5.373-9.75 12-9.75z"></path>
		</symbol>
		<symbol id="nmgr-icon-camera" viewBox="0 0 24 24">
			<path d="M7.125 14.25c0 2.692 2.183 4.875 4.875 4.875s4.875-2.183 4.875-4.875-2.183-4.875-4.875-4.875-4.875 2.183-4.875 4.875zM22.5 6h-5.25c-0.375-1.5-0.75-3-2.25-3h-6c-1.5 0-1.875 1.5-2.25 3h-5.25c-0.825 0-1.5 0.675-1.5 1.5v13.5c0 0.825 0.675 1.5 1.5 1.5h21c0.825 0 1.5-0.675 1.5-1.5v-13.5c0-0.825-0.675-1.5-1.5-1.5zM12 20.906c-3.676 0-6.656-2.98-6.656-6.656s2.98-6.656 6.656-6.656c3.676 0 6.656 2.98 6.656 6.656s-2.98 6.656-6.656 6.656zM22.5 10.5h-3v-1.5h3v1.5z"></path>
		</symbol>
		<symbol id="nmgr-icon-heart" viewBox="0 0 24 24">
			<path d="M17.7 1.5c-2.523 0-4.694 2.052-5.699 4.195-1.006-2.143-3.178-4.195-5.7-4.195-3.478 0-6.3 2.823-6.3 6.301 0 7.075 7.137 8.93 12.001 15.924 4.597-6.951 11.999-9.075 11.999-15.924 0-3.478-2.823-6.301-6.3-6.301z"></path>
		</symbol>
		<symbol id="nmgr-icon-box-open" viewBox="0 0 24 24">
			<path d="M11.5 23l-8.5-4.535v-3.953l5.4 3.122 3.1-3.406v8.772zm1-.001v-8.806l3.162 3.343 5.338-2.958v3.887l-8.5 4.534zm-10.339-10.125l-2.161-1.244 3-3.302-3-2.823 8.718-4.505 3.215 2.385 3.325-2.385 8.742 4.561-2.995 2.771 2.995 3.443-2.242 1.241v-.001l-5.903 3.27-3.348-3.541 7.416-3.962-7.922-4.372-7.923 4.372 7.422 3.937v.024l-3.297 3.622-5.203-3.008-.16-.092-.679-.393v.002z"/>
		</symbol>
		<symbol id="nmgr-icon-email" xmlns="http://www.w3.org/2000/svg" viewBox="0 0 24 24">
			<path d="M12 .02c-6.627 0-12 5.373-12 12s5.373 12 12 12 12-5.373 12-12-5.373-12-12-12zm6.99 6.98l-6.99 5.666-6.991-5.666h13.981zm.01 10h-14v-8.505l7 5.673 7-5.672v8.504z"/>
		</symbol>
		<symbol id="nmgr-icon-plus" xmlns="http://www.w3.org/2000/svg" viewBox="0 0 24 24">
			<path d="M24 9h-9v-9h-6v9h-9v6h9v9h6v-9h9z"/>
		</symbol>
		<symbol id="nmgr-icon-heart-empty" xmlns="http://www.w3.org/2000/svg" viewBox="0 0 24 24">
			<path d="M6.28 3c3.236.001 4.973 3.491 5.72 5.031.75-1.547 2.469-5.021 5.726-5.021 2.058 0 4.274 1.309 4.274 4.182 0 3.442-4.744 7.851-10 13-5.258-5.151-10-9.559-10-13 0-2.676 1.965-4.193 4.28-4.192zm.001-2c-3.183 0-6.281 2.187-6.281 6.192 0 4.661 5.57 9.427 12 15.808 6.43-6.381 12-11.147 12-15.808 0-4.011-3.097-6.182-6.274-6.182-2.204 0-4.446 1.042-5.726 3.238-1.285-2.206-3.522-3.248-5.719-3.248z"/>
		</symbol>
		<symbol id="nmgr-icon-eye" xmlns="http://www.w3.org/2000/svg" viewBox="0 0 24 24">
			<path d="M15 12c0 1.657-1.343 3-3 3s-3-1.343-3-3c0-.199.02-.393.057-.581 1.474.541 2.927-.882 2.405-2.371.174-.03.354-.048.538-.048 1.657 0 3 1.344 3 3zm-2.985-7c-7.569 0-12.015 6.551-12.015 6.551s4.835 7.449 12.015 7.449c7.733 0 11.985-7.449 11.985-7.449s-4.291-6.551-11.985-6.551zm-.015 12c-2.761 0-5-2.238-5-5 0-2.761 2.239-5 5-5 2.762 0 5 2.239 5 5 0 2.762-2.238 5-5 5z"/>
		</symbol>
		<symbol id="nmgr-icon-credit-card" enable-background="new 0 0 512 512" viewBox="0 0 512 512">
			<path d="m456 80h-400c-30.878 0-56 25.122-56 56v240c0 30.878 25.122 56 56 56h400c30.878 0 56-25.122 56-56v-240c0-30.878-25.122-56-56-56zm-400 32h400c13.233 0 24 10.767 24 24v32h-448v-32c0-13.233 10.767-24 24-24zm400 288h-400c-13.233 0-24-10.767-24-24v-176h448v176c0 13.233-10.767 24-24 24z"/>
			<path d="m112 352h-16c-8.836 0-16-7.164-16-16v-16c0-8.836 7.164-16 16-16h16c8.836 0 16 7.164 16 16v16c0 8.836-7.164 16-16 16z"/>
		</symbol>
		<symbol id="nmgr-icon-credit-card-full" enable-background="new 0 0 512 512" viewBox="0 0 512 512">
			<path d="m512 163v-27c0-30.928-25.072-56-56-56h-400c-30.928 0-56 25.072-56 56v27c0 2.761 2.239 5 5 5h502c2.761 0 5-2.239 5-5z"/>
			<path d="m0 205v171c0 30.928 25.072 56 56 56h400c30.928 0 56-25.072 56-56v-171c0-2.761-2.239-5-5-5h-502c-2.761 0-5 2.239-5 5zm128 131c0 8.836-7.164 16-16 16h-16c-8.836 0-16-7.164-16-16v-16c0-8.836 7.164-16 16-16h16c8.836 0 16 7.164 16 16z"/>
		</symbol>
		<symbol id="nmgr-icon-dropdown-toggle" viewBox="0 0 24 24">
			<path d="M12 18c1.657 0 3 1.343 3 3s-1.343 3-3 3-3-1.343-3-3 1.343-3 3-3zm0-9c1.657 0 3 1.343 3 3s-1.343 3-3 3-3-1.343-3-3 1.343-3 3-3zm0-9c1.657 0 3 1.343 3 3s-1.343 3-3 3-3-1.343-3-3 1.343-3 3-3z"/>
		</symbol>
	</defs>
</svg>
