<svg xmlns="http://www.w3.org/2000/svg" width="18" height="13" fill="none"><path fill="#F1F1F1" d="M17.996 12.995c0-.05.008-.087 0-.123-.584-2.62-1.654-4.96-3.492-6.85-1.444-1.484-3.17-2.386-5.138-2.743-.683-.124-1.383-.165-2.079-.21-.472-.033-.537-.083-.537-.596V.303c0-.124.009-.27-.124-.298a.4.4 0 0 0-.301.082A1702 1702 0 0 0 .178 5.202c-.24.201-.236.311.005.513q3.058 2.549 6.116 5.092c.078.064.19.128.28.123.141-.009.176-.137.176-.284V8.334c0-.37.107-.48.446-.476 2.354.027 4.61.517 6.718 1.676 1.517.829 2.84 1.918 3.913 3.338q.045.06.104.119c.008.009.021 0 .064.009z"/></svg>