<svg version="1.1" id="Layer_1" xmlns="http://www.w3.org/2000/svg" xmlns:xlink="http://www.w3.org/1999/xlink" x="0px" y="0px" viewBox="0 0 22 22" style="enable-background:new 0 0 22 22;" xml:space="preserve">
<g>
	<path d="M2.7,9.96v4.86c0,0.12,0.03,0.21,0.08,0.28s0.15,0.11,0.29,0.15v0.19H0.72v-0.19c0.14-0.04,0.24-0.09,0.29-0.15
		s0.08-0.15,0.08-0.28V8.04c0-0.12-0.03-0.21-0.08-0.27S0.86,7.66,0.72,7.62V7.44h2.72v0.19C3.27,7.67,3.19,7.76,3.19,7.89
		c0,0.09,0.05,0.2,0.16,0.31l4.41,4.59V8.04c0-0.12-0.03-0.21-0.08-0.27S7.53,7.66,7.39,7.62V7.44h2.35v0.19
		C9.6,7.66,9.5,7.71,9.45,7.78S9.36,7.93,9.36,8.04v6.77c0,0.12,0.03,0.21,0.08,0.28s0.15,0.11,0.29,0.15v0.19H7.22v-0.19
		c0.16-0.04,0.25-0.12,0.25-0.25c0-0.08-0.1-0.21-0.29-0.41L2.7,9.96z"/>
	<path d="M16.11,15.43l-2.95-5.53v4.91c0,0.12,0.03,0.21,0.08,0.28s0.15,0.11,0.29,0.15v0.19h-2.35v-0.19
		c0.14-0.04,0.24-0.09,0.29-0.15s0.08-0.15,0.08-0.28V8.04c0-0.12-0.03-0.21-0.08-0.27s-0.15-0.11-0.29-0.15V7.44h3.08v0.19
		c-0.18,0.05-0.28,0.15-0.28,0.32c0,0.08,0.03,0.17,0.08,0.27l2.18,4.13l2.21-4.06c0.1-0.18,0.15-0.31,0.15-0.39
		c0-0.16-0.1-0.25-0.29-0.27V7.44h3.02v0.19c-0.14,0.04-0.24,0.09-0.29,0.15s-0.08,0.15-0.08,0.27v6.77c0,0.12,0.03,0.21,0.08,0.28
		s0.15,0.11,0.29,0.15v0.19h-2.5v-0.19c0.14-0.04,0.23-0.08,0.29-0.15s0.08-0.16,0.08-0.28V9.91L16.11,15.43z"/>
</g>
</svg>
